<svg id="Layer_1" data-name="Layer 1" xmlns="http://www.w3.org/2000/svg" viewBox="0 0 159.81 113.14"><defs><style>.cls-1,.cls-3,.cls-4{fill:none;}.cls-1{stroke:#ca5098;stroke-width:5.11px;}.cls-1,.cls-3{stroke-linecap:round;stroke-linejoin:round;}.cls-1,.cls-2,.cls-3{fill-rule:evenodd;}.cls-2{fill:#fff;}.cls-3{stroke:#ea516d;stroke-width:5.11px;}.cls-4{stroke:#ededed;stroke-miterlimit:22.93;stroke-width:0.5px;}</style></defs><path class="cls-1" d="M598.78,395.37l.08,0c4.4-10.4,27.48-14.34,27.48-34,0-5-1.39-8.14-3.87-10.81-6.07-6.52-18.08-6.22-22.72,3.09a10.85,10.85,0,0,1-1,1.93,10.23,10.23,0,0,1-1-1.93c-4.64-9.31-16.65-9.61-22.72-3.09-2.48,2.67-3.87,5.77-3.87,10.81,0,19.63,23.08,23.57,27.49,34Z" transform="translate(-529.25 -313.83)"/><path class="cls-2" d="M625.55,403l.11,0c5.84-13.78,36.41-19,36.41-45,0-6.67-1.83-10.79-5.12-14.32-8-8.64-24-8.24-30.1,4.09a13.9,13.9,0,0,1-1.3,2.56,14.55,14.55,0,0,1-1.29-2.56c-6.14-12.33-22.06-12.73-30.1-4.09-3.29,3.53-5.13,7.65-5.13,14.32,0,26,30.58,31.24,36.42,45Z" transform="translate(-529.25 -313.83)"/><path class="cls-3" d="M625.55,395.33l.08,0c4.41-10.4,27.48-14.34,27.48-34,0-5-1.38-8.14-3.86-10.81-6.07-6.51-18.09-6.22-22.72,3.09a10.65,10.65,0,0,1-1,1.94,11.32,11.32,0,0,1-1-1.94c-4.64-9.31-16.65-9.6-22.72-3.09-2.48,2.67-3.87,5.78-3.87,10.81,0,19.64,23.08,23.58,27.48,34Z" transform="translate(-529.25 -313.83)"/><path class="cls-3" d="M625.47,355.51a14.72,14.72,0,0,1-.89-1.84,16,16,0,0,0-1.19-2c-.29-.36-.6-.72-.92-1.07a14.46,14.46,0,0,0-11.71-4.41,14.32,14.32,0,0,0-8.9,4.37l-.09.1a14,14,0,0,0-2,3,13.81,13.81,0,0,1-.93,1.89,18.22,18.22,0,0,0-.83,5.79c0,10.91,7.12,17,14.2,22,7.06-5,14.15-11.08,14.15-21.95A18,18,0,0,0,625.47,355.51Z" transform="translate(-529.25 -313.83)"/><rect class="cls-4" x="0.25" y="0.25" width="159.31" height="112.64"/></svg>